<svg xmlns="http://www.w3.org/2000/svg" viewBox="0 0 24 24" fill="none" stroke-width="1.8" stroke-linecap="round" stroke-linejoin="round" role="img" aria-label="Python">
  <defs>
    <linearGradient id="g" x1="0" y1="0" x2="24" y2="24" gradientUnits="userSpaceOnUse">
      <stop stop-color="#00C2FF"/>
      <stop offset="1" stop-color="#6D5DF6"/>
    </linearGradient>
  </defs>
  <path d="M5 12V9.5A3.5 3.5 0 0 1 8.5 6h7A3.5 3.5 0 0 1 19 9.5V13a3 3 0 0 1-3 3h-5.5" stroke="url(#g)"/>
  <path d="M19 12v2.5A3.5 3.5 0 0 1 15.5 18h-7A3.5 3.5 0 0 1 5 14.5V11a3 3 0 0 1 3-3h5.5" stroke="url(#g)"/>
  <circle cx="9" cy="9.4" r="1.15" fill="url(#g)" stroke="none"/>
  <circle cx="15" cy="14.6" r="1.15" fill="url(#g)" stroke="none"/>
</svg>
