<svg xmlns="http://www.w3.org/2000/svg" viewBox="0 0 24 24" fill="none" role="img" aria-label="WhatsApp">
  <path d="M20.5 11.7a8.5 8.5 0 0 1-12.4 7.5L3 20.9l1.7-5A8.5 8.5 0 1 1 20.5 11.7Z" stroke="#FFFFFF" stroke-width="1.8" stroke-linecap="round" stroke-linejoin="round"/>
  <path d="M8.9 7.4c.4-.4 1-.4 1.4 0l1.2 1.2c.4.4.4 1 0 1.4l-.7.7a7.6 7.6 0 0 0 2.5 2.5l.7-.7c.4-.4 1-.4 1.4 0l1.2 1.2c.4.4.4 1 0 1.4l-.9.9c-.6.6-1.5.7-2.2.4a12.6 12.6 0 0 1-3.4-2 12.6 12.6 0 0 1-2-3.4c-.3-.7-.2-1.6.4-2.2l.9-.9Z" fill="#FFFFFF"/>
</svg>
